<svg width="45" height="45" viewBox="0 0 60 60" fill="none" xmlns="http://www.w3.org/2000/svg">
    <path d="M7.5 56.25H5.625C4.63044 56.25 3.67661 55.8549 2.97335 55.1516C2.27009 54.4484 1.875 53.4946 1.875 52.5V13.125C1.875 12.1304 2.27009 11.1766 2.97335 10.4733C3.67661 9.77009 4.63044 9.375 5.625 9.375H7.5C8.49456 9.375 9.44839 9.77009 10.1517 10.4733C10.8549 11.1766 11.25 12.1304 11.25 13.125V52.5C11.25 53.4946 10.8549 54.4484 10.1517 55.1516C9.44839 55.8549 8.49456 56.25 7.5 56.25Z" fill="#4b2e2a"/>
    <path d="M28.125 20.625C28.125 19.6304 27.7299 18.6766 27.0266 17.9734C26.3234 17.2701 25.3696 16.875 24.375 16.875H16.875C15.8804 16.875 14.9266 17.2701 14.2233 17.9734C13.5201 18.6766 13.125 19.6304 13.125 20.625V23.9062C13.125 24.0306 13.1744 24.1498 13.2623 24.2377C13.3502 24.3256 13.4694 24.375 13.5938 24.375H27.6562C27.7806 24.375 27.8998 24.3256 27.9877 24.2377C28.0756 24.1498 28.125 24.0306 28.125 23.9062V20.625Z" fill="#4b2e2a"/>
    <path d="M13.125 52.5C13.125 53.4946 13.5201 54.4484 14.2233 55.1516C14.9266 55.8549 15.8804 56.25 16.875 56.25H24.375C25.3696 56.25 26.3234 55.8549 27.0266 55.1516C27.7299 54.4484 28.125 53.4946 28.125 52.5V48.9844C28.125 48.9222 28.1003 48.8626 28.0564 48.8186C28.0124 48.7747 27.9528 48.75 27.8906 48.75H13.3594C13.2972 48.75 13.2376 48.7747 13.1936 48.8186C13.1497 48.8626 13.125 48.9222 13.125 48.9844V52.5Z" fill="#4b2e2a"/>
    <path d="M27.8906 28.125H13.3594C13.2299 28.125 13.125 28.2299 13.125 28.3594V44.7656C13.125 44.8951 13.2299 45 13.3594 45H27.8906C28.0201 45 28.125 44.8951 28.125 44.7656V28.3594C28.125 28.2299 28.0201 28.125 27.8906 28.125Z" fill="#4b2e2a"/>
    <path d="M37.5 56.25H33.75C32.7554 56.25 31.8016 55.8549 31.0984 55.1516C30.3951 54.4484 30 53.4946 30 52.5V7.5C30 6.50544 30.3951 5.55161 31.0984 4.84835C31.8016 4.14509 32.7554 3.75 33.75 3.75H37.5C38.4946 3.75 39.4484 4.14509 40.1516 4.84835C40.8549 5.55161 41.25 6.50544 41.25 7.5V52.5C41.25 53.4946 40.8549 54.4484 40.1516 55.1516C39.4484 55.8549 38.4946 56.25 37.5 56.25Z" fill="#4b2e2a"/>
    <path d="M58.1116 52.2014L54.3347 12.3576C54.1613 10.5236 52.3495 9.19356 50.2882 9.39161L46.5558 9.74317C44.4945 9.93887 42.964 11.5842 43.1374 13.4182L46.9144 53.2619C47.0878 55.0959 48.8995 56.426 50.9609 56.2279L54.6933 55.8764C56.7546 55.6807 58.2851 54.0354 58.1116 52.2014Z" fill="#4b2e2a"/>
</svg>